<svg version="1.1" id="Layer_1" class="header-svg" xmlns="http://www.w3.org/2000/svg" xmlns:xlink="http://www.w3.org/1999/xlink" x="0px" y="0px"
	 viewBox="0 0 167.8 259.2" style="enable-background:new 0 0 167.8 259.2;position:absolute;" xml:space="preserve">
<style type="text/css">
	.st0{fill:none;stroke:#FAFFDF;}
	.st1{fill:none;stroke:#FAFFDF;stroke-width:0.75;}
  @keyframes draw {
    0% {
    }
    100% {
      stroke-dashoffset: 0;
      stroke-opacity: 1;
    }
  }
  .st0, .st1 {
    animation: draw 30s infinite;
    animation-timing-function: ease-in-out;
  }
  .path-1{
    animation-delay:1s;
  }
  .path-2{
    animation-delay:2s;
  }
</style>
<g id="lines_png">
	
		<image style="overflow:visible;enable-background:new    ;" width="699" height="1080" xlink:href="https://ic.petra.ac.id/assets/image/99EF6AD3.png"  transform="matrix(-0.24 0 0 0.24 167.76 0)">
	</image>
</g>
<g id="lines_svg" fill-rule="evenodd" stroke-linecap="butt" stroke-linejoin="round" stroke-opacity="1" stroke-dasharray="8,300,24,360,16,400" stroke-dashoffset="3000">
	<polyline class="st0 path-1" points="167.8,12.8 165.9,12.8 165.9,5.9 134.5,5.8 126.5,13.6 93.8,13.8 	"/>
	<polyline class="st0" points="167.8,15.5 163.3,15.5 163.2,8.5 135.8,8.5 127.8,16.4 101.1,16.5 	"/>
	<polyline class="st1" points="167.8,18.6 160.2,18.6 160.1,18.6 160.1,11.7 160.1,11.6 136.8,11.5 128.8,19.4 107.4,19.5 	"/>
	<polyline class="st1" points="167.8,22.6 156.5,22.6 156.5,15.7 156.5,15.5 137.6,15.5 131.7,21.8 89.1,21.9 89.1,16 66.2,15.9 	
		"/>
	<polyline class="st1" points="167.8,25.7 153.2,25.7 153.2,18.6 140.2,18.6 133.2,25.7 86,25.5 86,18.6 65.6,18.6 	"/>
	<polyline class="st1 path-2" points="167.8,28.2 84.2,28.1 84.1,21.3 60.7,21.3 52.9,29.2 34.4,29.2 	"/>
	<polyline class="st1" points="167.8,31.2 104,31.3 103.9,50.7 103.9,51 73,50.9 	"/>
	<polyline class="st1 path-1" points="167.8,34.1 107,34.2 106.9,53.5 73.2,53.6 	"/>
	<polyline class="st1 path-1" points="167.8,36.7 138.3,36.7 130.3,44.6 119.3,44.6 119.2,44.6 119.2,38.5 	"/>
	<polyline class="st1" points="167.8,46.5 166.9,46.5 166.9,39.6 166.9,39.5 139.7,39.5 131.6,47.4 115.2,47.4 115.2,43.5 	"/>
	<polyline class="st1 path-2" points="167.8,49.5 163.9,49.5 163.8,42.5 140.6,42.5 132.6,50.4 111.6,50.4 	"/>
	<polyline class="st1" points="167.8,53.4 160.4,53.4 160.4,46.4 146.2,46.5 	"/>
	<polyline class="st1 path-1" points="167.8,56.1 157.8,56.1 157.7,49.2 142,49.2 	"/>
	<polyline class="st1" points="167.8,59.2 154.7,59.1 154.7,52.2 139,52.2 	"/>
	<polyline class="st1 path-1" points="167.8,62.4 146.3,62.2 146.3,55.2 122.4,55.4 122.4,62.4 141.1,62.4 141.1,59.2 141.1,59.2 141.1,59 
		130.2,59 	"/>
	<polyline class="st1" points="167.8,64.4 118.3,64.5 118.3,57.7 86.6,57.6 79,65.5 56,65.6 	"/>
	<polyline class="st1 path-1" points="167.8,67.2 115.7,67.2 115.7,60.3 88.2,60.3 80.3,68.3 61.6,68.3 	"/>
	<polyline class="st1 path-2" points="167.8,70.3 112.5,70.3 112.5,63.4 89.2,63.4 81.5,71.1 62.8,71.1 	"/>
	<polyline class="st1" points="167.8,80.2 150.1,80.2 150.1,73.4 150.1,73.2 118.4,73.2 110.5,81.1 99.6,81.1 99.6,68.9 	"/>
	<polyline class="st1 path-2" points="167.8,86 144.4,86 144.4,79 120.9,79 113.1,86.8 82.8,86.8 	"/>
	<polyline class="st1 path-1" points="147.6,82.9 147.6,75.8 119.8,75.8 111.8,83.8 95.7,83.8 95.7,73.5 	"/>
	<polyline class="st1" points="167.8,89.9 140.8,89.9 140.8,82.9 126.5,82.9 	"/>
	<polyline class="st1 path-1" points="167.8,92.7 138.2,92.7 138.2,85.6 122.5,85.6 	"/>
	<polyline class="st1" points="167.8,95.4 135,95.4 135,88.5 119.5,88.5 	"/>
	<polyline class="st1 path-2" points="167.8,98.7 126.7,98.7 126.7,91.7 102.7,91.7 102.7,98.7 121.4,98.7 121.4,95.4 110.7,95.4 	"/>
	<polyline class="st1" points="157,103.6 96.1,103.6 96.1,96.7 89.9,96.7 	"/>
	<polyline class="st1" points="110.1,100.9 98.7,100.9 98.7,93.8 67,93.8 59.4,101.9 36.4,102 	"/>
	<polyline class="st1 path-1" points="167.8,117.1 146.2,117.1 146.2,110.1 114.5,110.1 106.5,118.1 95.2,118.1 	"/>
	<polyline class="st1" points="167.8,122.8 140.5,122.8 140.5,115.8 117.2,115.8 109.3,123.7 83.1,123.7 	"/>
	<polyline class="st1 path-1" points="167.5,135.6 84.2,135.6 84.2,155.2 40,155.2 32,163.1 9.2,163.1 	"/>
	<polyline class="st1" points="167.8,148.1 150.1,148.1 150.1,141.1 118.4,141.1 110.8,148.8 99.5,148.8 99.5,145.5 	"/>
	<polyline class="st1" points="167.8,150.9 147.4,150.9 147.4,143.8 119.8,143.8 111.9,151.7 95.7,151.7 95.7,147.4 	"/>
	<polyline class="st1 path-2" points="167.8,153.9 144.4,153.9 144.2,153.9 144.2,146.8 120.7,146.8 113,154.5 94.7,154.5 	"/>
	<polyline class="st1" points="167.8,157.9 140.8,157.9 140.8,150.7 126.4,150.7 	"/>
	<polyline class="st1 path-2" points="167.8,166.6 126.4,166.6 126.4,159.7 103,159.7 103,166.6 121.4,166.6 121.4,163.1 110.4,163.1 	"/>
	<polyline class="st1 path-2" points="167,168.7 98.8,168.7 98.8,161.8 67,161.8 58.9,169.9 36.5,169.9 	"/>
	<polyline class="st1 path-1" points="42.5,172.3 60.4,172.3 68.5,164.2 95.7,164.2 95.7,171.6 167,171.6 	"/>
	<polyline class="st1" points="163.5,174.4 92.9,174.4 92.9,169.9 	"/>
	<line class="st1" x1="161" y1="176.7" x2="126.4" y2="176.7"/>
	<polyline class="st1" points="167.5,174.4 162.1,179.7 136.1,179.7 	"/>
	<polyline class="st1 path-1" points="158.8,184.4 123.8,184.4 123.8,178.6 92.9,178.6 84.8,186.6 60.1,186.6 	"/>
	<polyline class="st1 path-1" points="167.8,188.6 120.8,188.6 120.8,181.6 93.3,181.6 88.1,186.9 	"/>
	<polyline class="st1 path-2" points="167.8,194.4 138.7,194.4 138.7,214 94.2,214 86.3,221.9 63.7,221.9 	"/>
	<polyline class="st1" points="167.8,197 141.7,197 141.7,216.6 95.8,216.6 87.9,224.6 69.3,224.6 	"/>
	<polyline class="st1 path-1" points="167.8,218.4 157.1,218.4 157.1,225.3 167.8,225.3 	"/>
	<polyline class="st1" points="153.4,225.3 153.4,220.6 121.7,220.6 113.5,228.8 90.8,228.8 	"/>
	<polyline class="st1" points="167.8,233.4 147.4,233.4 147.4,225.8 124.3,225.8 115.7,234.4 97.6,234.4 	"/>
	<polyline class="st1 path-1" points="167.8,236.2 153.4,236.2 145.7,243.9 134.5,243.9 134.5,231.8 	"/>
	<polyline class="st1" points="167.8,238.9 155,238.9 147.2,246.7 130.4,246.7 130.4,236.9 	"/>
	<polyline class="st1" points="154.9,242.8 148,249.9 118.5,249.9 	"/>
	<line class="st1" x1="167.8" y1="245.9" x2="161.6" y2="245.9"/>
	<polyline class="st1 path-1" points="166,126.3 137,126.3 137,119.7 118.4,119.7 112,125.8 104.8,126.3 	"/>
	<line class="st1 path-2" x1="167.5" y1="132.6" x2="101.4" y2="132.6"/>
</g>
</svg>