<svg version="1.1" id="Capa_1" xmlns="http://www.w3.org/2000/svg" xmlns:xlink="http://www.w3.org/1999/xlink" x="0px" y="0px"
	 viewBox="0 0 512 512" style="enable-background:new 0 0 512 512;" xml:space="preserve">
<g>
	<g>
		<g>
			<path fill="#FDEAC4" d="M509.8,141.2c-22.1,43.7-57,80.7-101.1,107.1l54.1,54.1c7.8,7.8,7.8,20.5,0,28.3c-7.8,7.8-20.5,7.8-28.3,0l-63.5-63.5
				c-29.9,12.4-62.1,19.8-95.1,22v90.7c0,11-9,20-20,20c-11,0-20-9-20-20v-90.6c-33-2.1-65.1-9.6-95.1-22l-63.5,63.5
				c-7.8,7.8-20.5,7.8-28.3,0c-7.8-7.8-7.8-20.5,0-28.3l54.1-54.1C59.2,221.9,24.2,184.9,2.2,141.2c-5-9.9-1-21.9,8.8-26.9
				c9.9-5,21.9-1,26.9,8.8C75,196.6,157.6,249.8,256,249.8c98.4,0,181.1-53.2,218.1-126.7c5-9.9,17-13.8,26.9-8.8
				C510.9,119.3,514.8,131.3,509.8,141.2z"/>
		</g>
	</g>
</g>
</svg>
